<svg width="39" height="38" viewBox="0 0 39 38" fill="none" xmlns="http://www.w3.org/2000/svg">
<g id="cart">
<path id="Vector" d="M6.92477 22.3102C6.67411 25.1627 8.98375 27.6127 11.92 27.6127H30.9879C33.5661 27.6127 35.822 25.5477 36.019 23.0452L36.9858 9.92021C37.2007 7.01521 34.9447 4.6527 31.9547 4.6527H8.84053" stroke="white" stroke-width="2.06197" stroke-miterlimit="10" stroke-linecap="round" stroke-linejoin="round"/>
<path id="Vector_2" d="M2 1.3629H5.11535C7.049 1.3629 8.57083 2.9904 8.4097 4.8629L7.51449 15.4504" stroke="white" stroke-width="2.06197" stroke-miterlimit="10" stroke-linecap="round" stroke-linejoin="round"/>
<path id="Vector_3" d="M27.5134 36.3629C28.7495 36.3629 29.7514 35.3836 29.7514 34.1754C29.7514 32.9672 28.7495 31.9879 27.5134 31.9879C26.2773 31.9879 25.2754 32.9672 25.2754 34.1754C25.2754 35.3836 26.2773 36.3629 27.5134 36.3629Z" stroke="white" stroke-width="2.06197" stroke-miterlimit="10" stroke-linecap="round" stroke-linejoin="round"/>
<path id="Vector_4" d="M13.1902 36.3629C14.4262 36.3629 15.4282 35.3836 15.4282 34.1754C15.4282 32.9672 14.4262 31.9879 13.1902 31.9879C11.9541 31.9879 10.9521 32.9672 10.9521 34.1754C10.9521 35.3836 11.9541 36.3629 13.1902 36.3629Z" stroke="white" stroke-width="2.06197" stroke-miterlimit="10" stroke-linecap="round" stroke-linejoin="round"/>
<path id="Vector_5" d="M14.533 11.8629H36.018" stroke="white" stroke-width="2.06197" stroke-miterlimit="10" stroke-linecap="round" stroke-linejoin="round"/>
</g>
</svg>
