<svg width="35" height="36" viewBox="0 0 35 36" fill="none" xmlns="http://www.w3.org/2000/svg">
<g id="search">
<path id="Vector" d="M16.6877 33.6635C7.4891 33.6635 0 26.1751 0 16.9774C0 7.77966 7.4891 0.291254 16.6877 0.291254C25.8863 0.291254 33.3754 7.77966 33.3754 16.9774C33.3754 26.1751 25.8863 33.6635 16.6877 33.6635ZM16.6877 2.73313C8.82412 2.73313 2.4421 9.13083 2.4421 16.9774C2.4421 24.8239 8.82412 31.2216 16.6877 31.2216C24.5512 31.2216 30.9333 24.8239 30.9333 16.9774C30.9333 9.13083 24.5512 2.73313 16.6877 2.73313Z" fill="white"/>
<path id="Vector_2" d="M33.783 35.2913C33.4737 35.2913 33.1644 35.1773 32.9202 34.9331L29.664 31.6773C29.1919 31.2052 29.1919 30.4238 29.664 29.9517C30.1362 29.4796 30.9177 29.4796 31.3898 29.9517L34.6459 33.2075C35.1181 33.6796 35.1181 34.461 34.6459 34.9331C34.4017 35.1773 34.0924 35.2913 33.783 35.2913Z" fill="white"/>
</g>
</svg>
