<svg width="35" height="36" viewBox="0 0 35 36" fill="none" xmlns="http://www.w3.org/2000/svg">
<g id="user">
<path id="Vector" d="M17.6961 20.3535C17.6635 20.3535 17.6147 20.3535 17.5821 20.3535C17.5333 20.3535 17.4682 20.3535 17.4194 20.3535C13.724 20.2396 10.9565 17.3582 10.9565 13.8093C10.9565 10.1954 13.903 7.24889 17.517 7.24889C21.131 7.24889 24.0775 10.1954 24.0775 13.8093C24.0612 17.3745 21.2775 20.2396 17.7449 20.3535C17.7124 20.3535 17.7124 20.3535 17.6961 20.3535ZM17.5007 9.67446C15.2217 9.67446 13.3821 11.5303 13.3821 13.793C13.3821 16.0233 15.124 17.8303 17.338 17.9117C17.3868 17.8954 17.5496 17.8954 17.7124 17.9117C19.8938 17.7977 21.6031 16.007 21.6193 13.793C21.6193 11.5303 19.7798 9.67446 17.5007 9.67446Z" fill="white"/>
<path id="Vector_2" d="M17.5012 35.3629C13.1221 35.3629 8.93844 33.735 5.69892 30.7722C5.4059 30.5118 5.27567 30.1211 5.30823 29.7467C5.51986 27.8095 6.7245 26.0025 8.72682 24.6676C13.578 21.4444 21.4407 21.4444 26.2756 24.6676C28.2779 26.0188 29.4825 27.8095 29.6941 29.7467C29.743 30.1373 29.5965 30.5118 29.3034 30.7722C26.0639 33.735 21.8802 35.3629 17.5012 35.3629ZM7.86403 29.4211C10.5663 31.6839 13.9687 32.9211 17.5012 32.9211C21.0337 32.9211 24.436 31.6839 27.1383 29.4211C26.8453 28.4281 26.0639 27.4676 24.9081 26.6862C20.9035 24.0164 14.1152 24.0164 10.078 26.6862C8.92217 27.4676 8.15705 28.4281 7.86403 29.4211Z" fill="white"/>
<path id="Vector_3" d="M17.4999 35.3627C7.84648 35.3627 0 27.5163 0 17.8628C0 8.20938 7.84648 0.362904 17.4999 0.362904C27.1534 0.362904 34.9998 8.20938 34.9998 17.8628C34.9998 27.5163 27.1534 35.3627 17.4999 35.3627ZM17.4999 2.80475C9.19763 2.80475 2.44185 9.56054 2.44185 17.8628C2.44185 26.1651 9.19763 32.9209 17.4999 32.9209C25.8022 32.9209 32.558 26.1651 32.558 17.8628C32.558 9.56054 25.8022 2.80475 17.4999 2.80475Z" fill="white"/>
</g>
</svg>
